<svg xmlns="http://www.w3.org/2000/svg" viewBox="0 0 100 85"><title>Avec</title><polygon points="41.1 76.1 43 76 48 37.3 45 37.3 41.1 65.6 37.2 37.3 34.3 37.3 39.3 76 41.1 76.1" fill="#fff"/><polygon points="60.7 74.1 53.9 74.1 53.9 57.7 60.5 57.7 60.5 54.5 53.8 54.5 53.8 40.9 60.9 41.1 60.9 37.6 51 37.6 51 77 60.7 77 60.7 74.1" fill="#fff"/><path d="M14.1,56.1H28.5L33,76.8h3.2L21.3,9,6.4,76.8H9.6Zm7.2-35.2,6.5,32H14.7Z" fill="#fff"/><path d="M81.5,78.5c10.5,0,10.9-12.9,11.1-12.9a11.5,11.5,0,0,1-2.6-.3c0,3.5-4.3,9.8-8.5,9.8-8.8,0-14.1-20-14.1-31s5.3-30.9,14.1-30.9c6,0,8.5,6.4,8.3,9.6a11.3,11.3,0,0,1,2.6.1c0-.3-.4-13.1-10.9-13.1-12.6,0-17.2,20.5-17.2,34.3S68.9,78.5,81.5,78.5Z" fill="#fff"/><path d="M0,0V85H100V0ZM97.4,82.4H2.6V2.6H97.4Z" fill="#fff"/></svg>
